<svg width="14" height="15" viewBox="0 0 14 15" fill="none" xmlns="http://www.w3.org/2000/svg">
<path d="M5.25 12.75H2.91667C2.275 12.75 1.75 12.225 1.75 11.5833V3.41667C1.75 2.775 2.275 2.25 2.91667 2.25H5.25C5.89167 2.25 6.41667 2.775 6.41667 3.41667V11.5833C6.41667 12.225 5.89167 12.75 5.25 12.75ZM8.75 12.75H11.0833C11.725 12.75 12.25 12.225 12.25 11.5833V8.66667C12.25 8.025 11.725 7.5 11.0833 7.5H8.75C8.10833 7.5 7.58333 8.025 7.58333 8.66667V11.5833C7.58333 12.225 8.10833 12.75 8.75 12.75ZM12.25 5.16667V3.41667C12.25 2.775 11.725 2.25 11.0833 2.25H8.75C8.10833 2.25 7.58333 2.775 7.58333 3.41667V5.16667C7.58333 5.80833 8.10833 6.33333 8.75 6.33333H11.0833C11.725 6.33333 12.25 5.80833 12.25 5.16667Z" fill="black"/>
</svg>
