<svg width="14" height="13" viewBox="0 0 14 13" fill="none" xmlns="http://www.w3.org/2000/svg">
<path d="M13.2702 1.24996V3.58329C13.2702 4.09663 12.891 4.51663 12.3952 4.58663V2.41663C12.3952 1.69329 11.806 1.10413 11.0827 1.10413H2.91602C2.19268 1.10413 1.60352 1.69329 1.60352 2.41663V4.58663C1.10768 4.51663 0.728516 4.09079 0.728516 3.58329V1.24996C0.728516 0.689959 1.18935 0.229126 1.74935 0.229126H12.2493C12.8094 0.229126 13.2702 0.689959 13.2702 1.24996ZM6.99935 5.77079C6.59685 5.77079 6.27018 6.09746 6.27018 6.49996C6.27018 6.90246 6.59685 7.22913 6.99935 7.22913C7.40185 7.22913 7.72852 6.90246 7.72852 6.49996C7.72852 6.09746 7.40185 5.77079 6.99935 5.77079ZM11.5202 2.41663V10.5833C11.5202 11.7908 10.5402 12.7708 9.33268 12.7708H4.66602C3.45852 12.7708 2.47852 11.7908 2.47852 10.5833V2.41663C2.47852 2.17746 2.67685 1.97913 2.91602 1.97913H6.56185V3.58329C6.56185 3.82246 6.76018 4.02079 6.99935 4.02079C7.23852 4.02079 7.43685 3.82246 7.43685 3.58329V1.97913H11.0827C11.3218 1.97913 11.5202 2.17746 11.5202 2.41663ZM7.43685 9.41663C7.43685 9.17746 7.23852 8.97913 6.99935 8.97913C6.76018 8.97913 6.56185 9.17746 6.56185 9.41663V10.5833C6.56185 10.8225 6.76018 11.0208 6.99935 11.0208C7.23852 11.0208 7.43685 10.8225 7.43685 10.5833V9.41663ZM8.60352 6.49996C8.60352 5.61329 7.88602 4.89579 6.99935 4.89579C6.11268 4.89579 5.39518 5.61329 5.39518 6.49996C5.39518 7.38663 6.11268 8.10413 6.99935 8.10413C7.88602 8.10413 8.60352 7.38663 8.60352 6.49996Z" fill="black"/>
</svg>
