<svg width="14" height="15" viewBox="0 0 14 15" fill="none" xmlns="http://www.w3.org/2000/svg">
<path d="M12.2495 9.69141V12.3164C12.2495 12.4324 12.2034 12.5437 12.1213 12.6258C12.0393 12.7078 11.928 12.7539 11.812 12.7539H11.6545C11.5664 12.7217 11.4913 12.6614 11.4407 12.5824C11.3901 12.5034 11.3668 12.4099 11.3745 12.3164V9.69141C11.3745 9.57537 11.4206 9.46409 11.5026 9.38205C11.5847 9.3 11.6959 9.25391 11.812 9.25391C11.928 9.25391 12.0393 9.3 12.1213 9.38205C12.2034 9.46409 12.2495 9.57537 12.2495 9.69141ZM12.2495 14.0664C12.2502 14.1238 12.2388 14.1807 12.2162 14.2334C12.1936 14.2862 12.1602 14.3336 12.1182 14.3727C12.0812 14.417 12.0328 14.4502 11.9782 14.4689C11.9236 14.4819 11.8666 14.4819 11.812 14.4689C11.7263 14.4677 11.6429 14.4414 11.5721 14.3932C11.5013 14.3451 11.4462 14.2772 11.4136 14.198C11.381 14.1188 11.3723 14.0318 11.3887 13.9478C11.4051 13.8637 11.4458 13.7863 11.5057 13.7252C11.5923 13.6562 11.7015 13.6219 11.812 13.6289C11.8637 13.6166 11.9177 13.6166 11.9695 13.6289C12.0241 13.6476 12.0725 13.6809 12.1095 13.7252C12.1578 13.7672 12.1956 13.82 12.2199 13.8792C12.2442 13.9384 12.2543 14.0025 12.2495 14.0664Z" fill="#777777"/>
<path d="M14 7.50383C14.0009 5.94061 13.4784 4.42208 12.516 3.19026C11.5535 1.95844 10.2065 1.08423 8.68946 0.70694C7.17245 0.329653 5.5728 0.47101 4.14546 1.10848C2.71812 1.74595 1.54523 2.84285 0.813721 4.22436C0.0822116 5.60587 -0.165819 7.19248 0.109159 8.73133C0.384136 10.2702 1.1663 11.6727 2.33098 12.7154C3.49567 13.7581 4.97586 14.3809 6.53564 14.4846C8.09542 14.5883 9.64503 14.1669 10.9375 13.2876C10.7994 13.1663 10.6889 13.0169 10.6135 12.8494C10.538 12.6818 10.4993 12.5001 10.5 12.3163V9.69133C10.5 9.34323 10.6383 9.00939 10.8844 8.76325C11.1306 8.51711 11.4644 8.37883 11.8125 8.37883C12.1606 8.37883 12.4944 8.51711 12.7406 8.76325C12.9867 9.00939 13.125 9.34323 13.125 9.69133V10.8813C13.701 9.84898 14.0023 8.68601 14 7.50383ZM7.875 7.94133V7.98508C7.87833 8.01415 7.87833 8.04351 7.875 8.07258V8.14258L7.8225 8.21258L7.76125 8.27383L5.13625 10.0238C5.04399 10.0957 4.9294 10.1329 4.81251 10.1288C4.74038 10.1282 4.66944 10.1104 4.60554 10.0769C4.54164 10.0434 4.48662 9.99525 4.44501 9.93633C4.38122 9.83851 4.35833 9.71958 4.38123 9.60507C4.40413 9.49056 4.471 9.38959 4.56751 9.32383L7 7.70508V3.56633C7 3.4503 7.0461 3.33902 7.12814 3.25698C7.21019 3.17493 7.32147 3.12883 7.4375 3.12883C7.55353 3.12883 7.66481 3.17493 7.74686 3.25698C7.82891 3.33902 7.875 3.4503 7.875 3.56633V7.94133Z" fill="#777777"/>
</svg>
