<svg width="120" height="47" viewBox="0 0 120 47" fill="none" xmlns="http://www.w3.org/2000/svg">
<rect y="17" width="6.66651" height="6.66651" fill="#00C5FF"/>
<rect y="23.666" width="6.66651" height="6.66651" fill="#7463EE"/>
<rect x="13.334" y="23.666" width="6.66651" height="6.66651" fill="#7C5CF2"/>
<rect x="13.334" y="30.334" width="6.66651" height="6.66651" fill="#664ABF"/>
<rect x="6.66602" y="30.334" width="6.66651" height="6.66651" fill="#7242F5"/>
<rect y="30.334" width="6.66651" height="6.66651" fill="#664ABF"/>
<rect y="37" width="6.66651" height="6.66651" fill="#7638FF"/>
<rect x="6.66602" y="17" width="6.66651" height="6.66651" fill="#00E9A7"/>
<rect x="13.334" y="17" width="6.66651" height="6.66651" fill="#00F387"/>
<path d="M29.41 40.7V19.4H34.06V21.17H34.15C34.39 20.6 36.01 19.1 38.77 19.1C42.31 19.1 46.21 21.77 46.21 27.2C46.21 32.63 42.31 35.3 38.77 35.3C36.01 35.3 34.39 33.8 34.15 33.23H34.06V40.7H29.41ZM33.94 27.2C33.94 29.75 35.77 31.16 37.81 31.16C39.79 31.16 41.62 29.72 41.62 27.2C41.62 24.68 39.79 23.24 37.81 23.24C35.77 23.24 33.94 24.65 33.94 27.2ZM49.7772 35V19.4H54.4272V35H49.7772ZM49.7772 17.75V13.7H54.4272V17.75H49.7772ZM74.7979 40.7H70.1479V33.23H70.0579C69.8179 33.8 68.1979 35.3 65.4379 35.3C61.8979 35.3 57.9979 32.63 57.9979 27.2C57.9979 21.77 61.8979 19.1 65.4379 19.1C68.1979 19.1 69.8179 20.6 70.0579 21.17H70.1479V19.4H74.7979V40.7ZM62.5879 27.2C62.5879 29.72 64.4179 31.16 66.3979 31.16C68.4379 31.16 70.2679 29.75 70.2679 27.2C70.2679 24.65 68.4379 23.24 66.3979 23.24C64.4179 23.24 62.5879 24.68 62.5879 27.2ZM84.2151 35.3C81.0651 35.3 78.6951 33.83 78.2151 30.86L81.9051 29.87C82.1451 30.62 82.6851 31.67 84.1551 31.67C84.9951 31.67 85.7751 31.25 85.7751 30.38C85.7751 29.87 85.4751 29.39 84.4551 29.06L82.3551 28.28C79.7751 27.35 78.6651 25.67 78.6651 23.72C78.6651 20.81 81.2751 19.1 84.3351 19.1C87.2751 19.1 89.4051 20.75 89.9451 23.27L86.3151 24.17C85.9251 22.97 85.1451 22.7 84.5151 22.7C83.6151 22.7 83.1651 23.24 83.1651 23.78C83.1651 24.29 83.4651 24.77 84.5151 25.1L86.4651 25.82C88.1451 26.39 90.3651 27.56 90.3651 30.38C90.3651 33.53 87.6951 35.3 84.2151 35.3ZM101.475 35.3C97.3952 35.3 93.1952 32.51 93.1952 27.2C93.1952 21.89 97.3952 19.1 101.475 19.1C105.555 19.1 109.755 21.89 109.755 27.2C109.755 32.51 105.555 35.3 101.475 35.3ZM97.7852 27.2C97.7852 29.6 99.4652 31.1 101.475 31.1C103.485 31.1 105.165 29.6 105.165 27.2C105.165 24.8 103.485 23.3 101.475 23.3C99.4652 23.3 97.7852 24.8 97.7852 27.2ZM113.316 35V13.7H117.966V35H113.316Z" fill="black"/>
</svg>
