<svg width="14" height="15" viewBox="0 0 14 15" fill="none" xmlns="http://www.w3.org/2000/svg">
<g clip-path="url(#clip0_6201_3458)">
<path fill-rule="evenodd" clip-rule="evenodd" d="M2.40625 2.03125H10.5V11.875H2.1875V2.03125H2.40625ZM3.9375 10.125H8.75001V10.5625H3.9375V10.125ZM3.9375 8.8125H8.75001V9.25001H3.9375V8.8125ZM3.9375 3.56249H8.75001V4.00001H3.9375V3.56249ZM4.47662 5.33209C4.68284 5.33209 4.86955 5.41569 5.00471 5.55085C5.13987 5.68601 5.22348 5.87273 5.22348 6.07894C5.22348 6.14207 5.21564 6.20337 5.20088 6.26192L5.73061 6.58597C5.75591 6.54968 5.78437 6.51569 5.81566 6.48441C5.95083 6.34924 6.13754 6.26564 6.34376 6.26564C6.5319 6.26564 6.70381 6.33525 6.83515 6.4501L7.5498 5.86661C7.49503 5.76272 7.46402 5.64437 7.46402 5.5188C7.46402 5.31259 7.54763 5.12587 7.68279 4.99071C7.81795 4.85555 8.00467 4.77195 8.21088 4.77195C8.4171 4.77195 8.60381 4.85555 8.73897 4.99071C8.87413 5.12587 8.95774 5.31259 8.95774 5.5188C8.95774 5.72502 8.87413 5.91173 8.73897 6.0469C8.60381 6.18205 8.4171 6.26566 8.21088 6.26566C8.05919 6.26566 7.91806 6.22042 7.80023 6.14271L7.04622 6.75834C7.07494 6.83767 7.09061 6.92326 7.09061 7.0125C7.09061 7.21872 7.00701 7.40543 6.87185 7.54059C6.73668 7.67576 6.54997 7.75936 6.34375 7.75936C6.13754 7.75936 5.95082 7.67575 5.81566 7.54059C5.68049 7.40543 5.5969 7.21872 5.5969 7.0125C5.5969 6.989 5.59799 6.96577 5.60012 6.94284L5.02198 6.58917C5.01633 6.59521 5.01058 6.60117 5.00471 6.60703C4.86955 6.74219 4.68284 6.8258 4.47662 6.8258C4.2704 6.8258 4.08369 6.7422 3.94853 6.60703C3.81336 6.47187 3.72976 6.28516 3.72976 6.07894C3.72976 5.87273 3.81337 5.68601 3.94853 5.55085C4.08369 5.41568 4.2704 5.33209 4.47662 5.33209Z" fill="black"/>
<path d="M3.88868 12.0904V12.5313H11.3553V3.5376H10.7119V3.1001H11.7928V12.9688H3.45117V12.0904H3.88868Z" fill="black"/>
</g>
<defs>
<clipPath id="clip0_6201_3458">
<rect width="14" height="14" fill="white" transform="translate(0 0.5)"/>
</clipPath>
</defs>
</svg>
