<svg width="14" height="15" viewBox="0 0 14 15" fill="none" xmlns="http://www.w3.org/2000/svg">
<g clip-path="url(#clip0_6201_3070)">
<path d="M6.70768 7.49996C7.83526 7.49996 8.74935 6.58587 8.74935 5.45829C8.74935 4.33071 7.83526 3.41663 6.70768 3.41663C5.5801 3.41663 4.66602 4.33071 4.66602 5.45829C4.66602 6.58587 5.5801 7.49996 6.70768 7.49996Z" fill="black"/>
<path d="M10.7923 8.66667C11.5977 8.66667 12.2507 8.01375 12.2507 7.20833C12.2507 6.40292 11.5977 5.75 10.7923 5.75C9.9869 5.75 9.33398 6.40292 9.33398 7.20833C9.33398 8.01375 9.9869 8.66667 10.7923 8.66667Z" fill="black"/>
<path d="M2.66732 8.66667C3.47273 8.66667 4.12565 8.01375 4.12565 7.20833C4.12565 6.40292 3.47273 5.75 2.66732 5.75C1.8619 5.75 1.20898 6.40292 1.20898 7.20833C1.20898 8.01375 1.8619 8.66667 2.66732 8.66667Z" fill="black"/>
<path d="M6.70833 8.08337C5.7031 8.08461 4.73939 8.48448 4.02858 9.19529C3.31778 9.9061 2.9179 10.8698 2.91667 11.875C2.91667 11.9524 2.9474 12.0266 3.00209 12.0813C3.05679 12.136 3.13098 12.1667 3.20833 12.1667H10.2083C10.2857 12.1667 10.3599 12.136 10.4146 12.0813C10.4693 12.0266 10.5 11.9524 10.5 11.875C10.5 9.78437 8.799 8.08337 6.70833 8.08337ZM3.16925 9.31304C2.99054 9.27306 2.80812 9.25194 2.625 9.25004C1.92904 9.25081 1.26181 9.52762 0.769697 10.0197C0.277582 10.5119 0.000771999 11.1791 0 11.875C0 11.9524 0.0307291 12.0266 0.0854272 12.0813C0.140125 12.136 0.214312 12.1667 0.291667 12.1667H2.387C2.35246 12.0733 2.3343 11.9746 2.33333 11.875C2.33333 10.9178 2.646 10.034 3.16925 9.31304ZM10.7917 9.25004C10.6073 9.25004 10.4259 9.27512 10.2474 9.31304C10.7904 10.0569 11.0831 10.9541 11.0833 11.875C11.0833 11.9777 11.0623 12.0751 11.0297 12.1667H13.125C13.2024 12.1667 13.2765 12.136 13.3312 12.0813C13.3859 12.0266 13.4167 11.9524 13.4167 11.875C13.4167 10.4278 12.2389 9.25004 10.7917 9.25004Z" fill="black"/>
</g>
<defs>
<clipPath id="clip0_6201_3070">
<rect width="14" height="14" fill="white" transform="translate(0 0.5)"/>
</clipPath>
</defs>
</svg>
